<svg xmlns="http://www.w3.org/2000/svg" xmlns:xlink="http://www.w3.org/1999/xlink" viewBox="0 0 590.61 324.37"><defs><style>.cls-1{fill:url(#linear-gradient);}.cls-2{fill:url(#linear-gradient-2);}.cls-3{fill:url(#linear-gradient-5);}.cls-4{fill:url(#linear-gradient-8);}.cls-5{fill:url(#linear-gradient-9);}.cls-6{fill:url(#linear-gradient-10);}.cls-7{fill:url(#linear-gradient-11);}.cls-8{fill:url(#linear-gradient-12);}.cls-9{fill:url(#linear-gradient-13);}.cls-10{fill:url(#linear-gradient-14);}</style><linearGradient id="linear-gradient" x1="265.12" y1="-6.58" x2="852.78" y2="-6.58" gradientTransform="matrix(1, 0, 0, -1, -268.44, 49.05)" gradientUnits="userSpaceOnUse"><stop offset="0" stop-color="#00a6e1"/><stop offset="1" stop-color="#4fc1bc"/></linearGradient><linearGradient id="linear-gradient-2" x1="265.12" y1="-117.85" x2="852.78" y2="-117.85" xlink:href="#linear-gradient"/><linearGradient id="linear-gradient-5" x1="265.12" y1="-117.85" x2="852.78" y2="-117.85" xlink:href="#linear-gradient"/><linearGradient id="linear-gradient-8" x1="46.19" y1="336.26" x2="46.19" y2="366.63" gradientTransform="matrix(1, 0, 0, 1, 0, 0)" xlink:href="#linear-gradient"/><linearGradient id="linear-gradient-9" x1="132.1" y1="336.26" x2="132.1" y2="366.63" gradientTransform="matrix(1, 0, 0, 1, 0, 0)" xlink:href="#linear-gradient"/><linearGradient id="linear-gradient-10" x1="222.76" y1="336.26" x2="222.76" y2="366.63" gradientTransform="matrix(1, 0, 0, 1, 0, 0)" xlink:href="#linear-gradient"/><linearGradient id="linear-gradient-11" x1="306.06" y1="336.26" x2="306.06" y2="366.63" gradientTransform="matrix(1, 0, 0, 1, 0, 0)" xlink:href="#linear-gradient"/><linearGradient id="linear-gradient-12" x1="365.97" y1="336.26" x2="365.97" y2="366.63" gradientTransform="matrix(1, 0, 0, 1, 0, 0)" xlink:href="#linear-gradient"/><linearGradient id="linear-gradient-13" x1="427.1" y1="336.26" x2="427.1" y2="366.63" gradientTransform="matrix(1, 0, 0, 1, 0, 0)" xlink:href="#linear-gradient"/><linearGradient id="linear-gradient-14" x1="503.85" y1="336.26" x2="503.85" y2="366.63" gradientTransform="matrix(1, 0, 0, 1, 0, 0)" xlink:href="#linear-gradient"/></defs><title>Recurso 1</title><g id="Capa_2" data-name="Capa 2"><g id="Capa_1-2" data-name="Capa 1"><path class="cls-1" d="M387.32,38.51a72.84,72.84,0,0,1,72.76,72.76,110.63,110.63,0,0,1,19.25-62.48,111.17,111.17,0,0,0-184,0,110.61,110.61,0,0,1,19.25,62.48A72.85,72.85,0,0,1,387.32,38.51Z"/><path class="cls-2" d="M203.29,184a72.85,72.85,0,0,1-72.77-72.77,110.63,110.63,0,0,1-19.25,62.48,111.17,111.17,0,0,0,184,0,110.64,110.64,0,0,1-19.25-62.48A72.85,72.85,0,0,1,203.29,184Z"/><path class="cls-1" d="M19.25,0a19.25,19.25,0,0,0,0,38.51A72.84,72.84,0,0,1,92,111.27a110.63,110.63,0,0,1,19.25-62.48A111.24,111.24,0,0,0,19.25,0Z"/><path class="cls-1" d="M571.35,0a111.24,111.24,0,0,0-92,48.79,110.63,110.63,0,0,1,19.25,62.48,72.85,72.85,0,0,1,72.77-72.76,19.25,19.25,0,0,0,0-38.51Z"/><path class="cls-3" d="M19.25,184a19.25,19.25,0,1,0,0,38.51,111.23,111.23,0,0,0,92-48.79A110.63,110.63,0,0,1,92,111.27,72.85,72.85,0,0,1,19.25,184Z"/><path class="cls-3" d="M479.34,130.52a19.25,19.25,0,0,1-19.25-19.25,72.76,72.76,0,1,1-145.53,0,110.62,110.62,0,0,1-19.25,62.48,111.23,111.23,0,0,0,203.29-62.48A19.25,19.25,0,0,1,479.34,130.52Z"/><path class="cls-1" d="M203.29,38.51a72.84,72.84,0,0,1,72.76,72.76A110.64,110.64,0,0,1,295.3,48.79a111.17,111.17,0,0,0-184,0,110.63,110.63,0,0,1,19.25,62.48A72.85,72.85,0,0,1,203.29,38.51Z"/><path class="cls-4" d="M37.38,279.4l5.24,8.31c1.44,2.35,2.71,4.51,4,6.77h.27c1.26-2.44,2.53-4.7,3.79-7l4.88-8.13h12.1L52.91,300.53l15,22.85H55.35l-5.42-8.76c-1.44-2.35-2.71-4.7-4-7.13h-.18c-1.26,2.53-2.53,4.7-4,7.13l-5.06,8.76H24.47L39.73,301,25,279.4Z"/><path class="cls-5" d="M154.41,301c0,16.16-11.38,23.39-22.58,23.39-12.46,0-22-8.58-22-22.67,0-14.45,9.48-23.3,22.76-23.3C145.65,278.41,154.41,287.62,154.41,301Zm-33.14.45c0,8.49,4.15,14.9,10.93,14.9,6.32,0,10.75-6.23,10.75-15.08,0-6.86-3.07-14.72-10.66-14.72C124.43,286.54,121.27,294.12,121.27,301.43Z"/><path class="cls-6" d="M245.06,301c0,16.16-11.38,23.39-22.58,23.39-12.46,0-22-8.58-22-22.67,0-14.45,9.48-23.3,22.76-23.3C236.3,278.41,245.06,287.62,245.06,301Zm-33.14.45c0,8.49,4.15,14.9,10.93,14.9,6.32,0,10.75-6.23,10.75-15.08,0-6.86-3.07-14.72-10.66-14.72C215.08,286.54,211.92,294.12,211.92,301.43Z"/><path class="cls-7" d="M293.91,293.58c0-6-.09-10.2-.36-14.18h9.66l.36,8.4h.36c2.17-6.23,7.31-9.39,12-9.39a11.67,11.67,0,0,1,2.62.27v10.47a15.44,15.44,0,0,0-3.25-.36c-5.33,0-8.94,3.43-9.93,8.4a19.15,19.15,0,0,0-.36,3.43v22.76H293.91Z"/><path class="cls-8" d="M359.11,317.24A6.76,6.76,0,0,1,366,310.1c4.06,0,6.86,2.89,6.86,7.13,0,4.06-2.71,7.13-6.86,7.13S359.11,321.3,359.11,317.24Z"/><path class="cls-9" d="M433.33,267.12c0,3.34-2.44,6-6.32,6a5.84,5.84,0,0,1-6.14-6,6.23,6.23,0,0,1,12.46,0ZM421.5,323.38v-41h11.2v41Z"/><path class="cls-10" d="M526.16,301c0,16.16-11.38,23.39-22.58,23.39-12.46,0-22-8.58-22-22.67,0-14.45,9.48-23.3,22.76-23.3C517.4,278.41,526.16,287.62,526.16,301Zm-33.14.45c0,8.49,4.15,14.9,10.93,14.9,6.32,0,10.75-6.23,10.75-15.08,0-6.86-3.07-14.72-10.66-14.72C496.18,286.54,493,294.12,493,301.43Z"/></g></g></svg>